# xmcd
#
# Track frame offsets:
#	150
#	14062
#	34836
#	52841
#	66677
#	84364
#	104662
#	127263
#	152324
#	177024
#	192699
#	206762
#	215534
#	230392
#
# Disc length: 3253 seconds
#
# Revision: 1
# Processed by: cddbd v1.5.1PL0 Copyright (c) Steve Scherf et al.
# Submitted via: audiograbber 1.83.01
#
DISCID=cd0cb30e
DTITLE=Lonesome Dave Paul - Sit Down Bluesman
DYEAR=2005
DGENRE=Blues
TTITLE0=Evil
TTITLE1=Sitdown Bluesman
TTITLE2=Lonesome Blues
TTITLE3=You'll Be Mine
TTITLE4=Back in California
TTITLE5=Ode to Elmore
TTITLE6=Take Care Babe
TTITLE7=Shake (Willow Tree Blues)
TTITLE8=My Old Tomcat
TTITLE9=Little Dumpling Girl
TTITLE10=Mojo Hand
TTITLE11=Ode to Elmore (Slight Return)
TTITLE12=Gasoline Blues
TTITLE13=Debbie's Song
EXTD=
EXTT0=
EXTT1=
EXTT2=
EXTT3=
EXTT4=
EXTT5=
EXTT6=
EXTT7=
EXTT8=
EXTT9=
EXTT10=
EXTT11=
EXTT12=
EXTT13=
PLAYORDER=
